<svg xmlns="http://www.w3.org/2000/svg" viewBox="0 0 200 200" width="200" height="200">
  <rect width="100%" height="100%" fill="#f5f5f5"/>
  <path d="M 85 100 A 15 15 0 1 1 115 100 A 15 15 0 1 1 85 100 M 115 100 A 20 20 0 1 1 155 100 A 20 20 0 1 1 115 100 M 97.50598761089745 130.3074313950738 A 20 20 0 1 1 137.50598761089745 130.3074313950738 A 20 20 0 1 1 97.50598761089745 130.3074313950738 M 62.511977270451155 130.31780105830208 A 20 20 0 1 1 102.51197727045115 130.31780105830208 A 20 20 0 1 1 62.511977270451155 130.31780105830208 M 45.000006146669676 100.02074287442848 A 20 20 0 1 1 85.00000614666968 100.02074287442848 A 20 20 0 1 1 45.000006146669676 100.02074287442848 M 62.47605365652669 69.70294891328417 A 20 20 0 1 1 102.47605365652669 69.70294891328417 A 20 20 0 1 1 62.47605365652669 69.70294891328417 M 97.47005170573743 69.67183992724154 A 20 20 0 1 1 137.47005170573743 69.67183992724154 A 20 20 0 1 1 97.47005170573743 69.67183992724154" fill="pink" stroke="deeppink" stroke-width="2"/>
</svg>