<svg xmlns="http://www.w3.org/2000/svg" viewBox="0 0 200 200" width="200" height="200">
  <rect width="100%" height="100%" fill="#f5f5f5"/>
  <path d="M 100 100 L 101.4330047336884 100.443280309992 L 102.47600684472903 101.6939274201851 L 102.79724485721799 103.52497109332367 L 102.17414652686004 105.59223451580336 L 100.53052901250777 107.4812123995304 L 97.95518114776222 108.76462867790376 L 94.69911590170149 109.06369834981318 L 91.15127541350506 108.1055581666138 L 87.79502608276968 105.76962838315671 L 85.15011255099333 102.116800120898 L 83.70658379650374 97.39719604663641 L 83.85834850598535 92.03463202069267 L 85.84432006809726 86.58855989591251 L 89.70452275184532 81.69690877931464 L 95.25709451280746 78.00557235253532 L 102.09997560254672 76.09204938793982 L 109.638432439181 76.39172560064281 L 117.13670765045111 79.13535883598833 L 123.78931436791606 84.30546203596732 L 128.805108599511 91.61753505403223 L 131.49554704607758 100.52963786525702 L 131.35767553463148 110.28086499594147 L 128.14251595432484 119.95617187139288 L 121.9006473231612 128.5720430985695 L 112.99882441881347 135.1749991290527 L 102.10426140194335 138.9431904696096 L 90.13646177370046 139.280537339226 L 78.18987652709922 135.89315413970778 L 67.43387091651316 128.839161508575 L 58.99913821518954 118.54533183587904 L 53.861522366453954 105.78713069307845 L 52.73498292188191 91.63231450129697 L 55.98503794504464 77.35197325812159 L 63.57245174661279 64.30639093272934 L 75.03431128021039 53.815972601487324 L 89.50618505141182 47.02944357640947 L 105.78509949104618 44.8023313546786 L 122.42897938182978 47.598274037113484 L 137.88438581125175 55.42396034073655 L 150.63123752394952 67.80562491997391 L 159.33105600002648 83.81124483100314 L 162.96437888656328 102.11825197493161 L 160.94347246131102 121.12210132438119 L 153.18834120426976 139.07685197067673 L 140.1571447734177 154.2554487922344 L 122.82622657848435 165.1150011916432 L 102.61966612775326 170.4513119067282 L 81.2931503526097 169.52735991154802 L 60.78154758569985 162.16239208900566" fill="none" stroke="teal" stroke-width="2"/>
</svg>