<svg xmlns="http://www.w3.org/2000/svg" viewBox="0 0 200 200" width="200" height="200">
  <path d="M 60 100 A 40 40 0 1 1 140 100 A 40 40 0 1 1 60 100 M 162 100 A 8 8 0 1 1 178 100 A 8 8 0 1 1 162 100 M 141.49747468305833 149.49747468305833 A 8 8 0 1 1 157.49747468305833 149.49747468305833 A 8 8 0 1 1 141.49747468305833 149.49747468305833 M 92 170 A 8 8 0 1 1 108 170 A 8 8 0 1 1 92 170 M 42.50252531694168 149.49747468305833 A 8 8 0 1 1 58.50252531694168 149.49747468305833 A 8 8 0 1 1 42.50252531694168 149.49747468305833 M 22 100.00000000000001 A 8 8 0 1 1 38 100.00000000000001 A 8 8 0 1 1 22 100.00000000000001 M 42.502525316941664 50.50252531694168 A 8 8 0 1 1 58.502525316941664 50.50252531694168 A 8 8 0 1 1 42.502525316941664 50.50252531694168 M 91.99999999999999 30 A 8 8 0 1 1 107.99999999999999 30 A 8 8 0 1 1 91.99999999999999 30 M 141.49747468305833 50.502525316941664 A 8 8 0 1 1 157.49747468305833 50.502525316941664 A 8 8 0 1 1 141.49747468305833 50.502525316941664"/>
</svg>